<svg width="51" height="51" viewBox="0 0 51 51" fill="none" xmlns="http://www.w3.org/2000/svg">
<g clip-path="url(#clip0_43_43)">
<path d="M13.3418 14.7307C12.821 15.0888 12.2676 15.3573 11.6816 15.5364C11.0957 15.7154 10.4935 15.8049 9.875 15.8049C9.0612 15.8049 8.26367 15.6503 7.48242 15.3411C6.70117 15.0318 6.01758 14.5842 5.43164 13.9983C4.8457 13.4124 4.39811 12.7288 4.08887 11.9475C3.77962 11.1663 3.625 10.3687 3.625 9.55493C3.625 8.93644 3.71452 8.33423 3.89355 7.74829C4.07259 7.16235 4.34115 6.60897 4.69922 6.08813C5.02474 5.5673 5.4235 5.11157 5.89551 4.72095C6.36751 4.33032 6.89648 4.02108 7.48242 3.79321C8.06836 3.53279 8.66243 3.37817 9.26465 3.32935C9.86686 3.28052 10.4772 3.30493 11.0957 3.40259C11.7142 3.53279 12.292 3.74438 12.8291 4.03735C13.3662 4.33032 13.8626 4.6884 14.3184 5.11157C14.7415 5.5673 15.0996 6.06372 15.3926 6.60083C15.6855 7.13794 15.8971 7.71574 16.0273 8.33423C16.125 8.95272 16.1494 9.56307 16.1006 10.1653C16.0518 10.7675 15.8971 11.3616 15.6367 11.9475C15.4089 12.5334 15.0996 13.0624 14.709 13.5344C14.3184 14.0064 13.8626 14.4052 13.3418 14.7307ZM11.6328 6.96704C11.3724 6.80428 11.0876 6.67407 10.7783 6.57642C10.4691 6.47876 10.168 6.42993 9.875 6.42993C9.45182 6.42993 9.05306 6.51131 8.67871 6.67407C8.30436 6.83683 7.9707 7.0647 7.67773 7.35767C7.38477 7.65063 7.1569 7.98429 6.99414 8.35864C6.83138 8.73299 6.75 9.13176 6.75 9.55493C6.75 9.8479 6.79883 10.149 6.89648 10.4583C6.99414 10.7675 7.12435 11.0523 7.28711 11.3127C7.44987 11.5406 7.65332 11.7522 7.89746 11.9475C8.1416 12.1428 8.41016 12.3056 8.70312 12.4358C8.96354 12.566 9.24837 12.6474 9.55762 12.6799C9.86686 12.7125 10.168 12.6962 10.4609 12.6311C10.7865 12.566 11.0876 12.4602 11.3643 12.3137C11.641 12.1672 11.877 11.9801 12.0723 11.7522C12.3001 11.5569 12.4873 11.3209 12.6338 11.0442C12.7803 10.7675 12.8861 10.4664 12.9512 10.1409C13.0163 9.8479 13.0326 9.54679 13 9.23755C12.9674 8.9283 12.8861 8.64347 12.7559 8.38306C12.6257 8.09009 12.4629 7.82153 12.2676 7.57739C12.0723 7.33325 11.8607 7.1298 11.6328 6.96704ZM34.875 18.9299V17.3674C34.875 16.8466 34.8262 16.3339 34.7285 15.8293C34.6309 15.3248 34.4844 14.8446 34.2891 14.3889C34.0938 13.9006 33.8496 13.4449 33.5566 13.0217C33.2637 12.5986 32.9382 12.2079 32.5801 11.8499C32.222 11.4918 31.8314 11.1663 31.4082 10.8733C30.985 10.5803 30.5293 10.3362 30.041 10.1409C29.5853 9.94556 29.1051 9.79907 28.6006 9.70142C28.096 9.60376 27.5833 9.55493 27.0625 9.55493H22.375V6.42993H27.0625C28.5273 6.42993 29.9271 6.70662 31.2617 7.26001C32.5964 7.8134 33.7682 8.61092 34.7773 9.65259C35.819 10.6617 36.6165 11.8336 37.1699 13.1682C37.7233 14.5028 38 15.9026 38 17.3674V18.9299H34.875ZM6.75 31.4299V32.9924C6.75 34.0341 6.94531 35.0351 7.33594 35.9954C7.72656 36.9556 8.29622 37.7939 9.04492 38.51C9.76107 39.2587 10.5993 39.8284 11.5596 40.219C12.5199 40.6096 13.5208 40.8049 14.5625 40.8049H19.25V43.9299H14.5625C13.0977 43.9299 11.6979 43.6532 10.3633 43.0999C9.02865 42.5465 7.85677 41.7489 6.84766 40.7073C5.80599 39.6982 5.00846 38.5263 4.45508 37.1917C3.90169 35.857 3.625 34.4573 3.625 32.9924V31.4299H6.75ZM14.5625 17.3674H5.1875C4.56901 17.3674 3.97493 17.4895 3.40527 17.7336C2.83561 17.9778 2.32292 18.3114 1.86719 18.7346C1.44401 19.1903 1.11035 19.703 0.866211 20.2727C0.62207 20.8424 0.5 21.4364 0.5 22.0549V25.1799H3.625V22.0549C3.625 21.8596 3.66569 21.6643 3.74707 21.469C3.82845 21.2737 3.93424 21.0946 4.06445 20.9319C4.22721 20.8017 4.40625 20.6959 4.60156 20.6145C4.79688 20.5331 4.99219 20.4924 5.1875 20.4924H14.5625C14.7578 20.4924 14.9531 20.5331 15.1484 20.6145C15.3438 20.6959 15.5228 20.8017 15.6855 20.9319C15.8158 21.0946 15.9215 21.2737 16.0029 21.469C16.0843 21.6643 16.125 21.8596 16.125 22.0549V25.1799H19.25V22.0549C19.25 21.4364 19.1279 20.8424 18.8838 20.2727C18.6396 19.703 18.306 19.1903 17.8828 18.7346C17.4271 18.3114 16.9144 17.9778 16.3447 17.7336C15.7751 17.4895 15.181 17.3674 14.5625 17.3674ZM30.1875 39.2424C29.569 39.2424 28.9749 39.3645 28.4053 39.6086C27.8356 39.8528 27.3229 40.1864 26.8672 40.6096C26.444 41.0653 26.1104 41.578 25.8662 42.1477C25.6221 42.7174 25.5 43.3114 25.5 43.9299V47.0549H28.625V43.9299C28.625 43.7346 28.6657 43.5393 28.7471 43.344C28.8285 43.1487 28.9342 42.9696 29.0645 42.8069C29.2272 42.6767 29.4062 42.5709 29.6016 42.4895C29.7969 42.4081 29.9922 42.3674 30.1875 42.3674H39.5625C39.7578 42.3674 39.9531 42.4081 40.1484 42.4895C40.3438 42.5709 40.5228 42.6767 40.6855 42.8069C40.8158 42.9696 40.9216 43.1487 41.0029 43.344C41.0843 43.5393 41.125 43.7346 41.125 43.9299V47.0549H44.25V43.9299C44.25 43.3114 44.1279 42.7174 43.8838 42.1477C43.6396 41.578 43.306 41.0653 42.8828 40.6096C42.4271 40.1864 41.9144 39.8528 41.3447 39.6086C40.7751 39.3645 40.181 39.2424 39.5625 39.2424H30.1875ZM29.6992 34.8967C29.3411 34.3759 29.0726 33.8225 28.8936 33.2366C28.7145 32.6506 28.625 32.0484 28.625 31.4299C28.625 30.6161 28.7796 29.8186 29.0889 29.0374C29.3981 28.2561 29.8457 27.5725 30.4316 26.9866C31.0176 26.4006 31.7012 25.953 32.4824 25.6438C33.2637 25.3346 34.0612 25.1799 34.875 25.1799C35.4935 25.1799 36.0957 25.2694 36.6816 25.4485C37.2676 25.6275 37.821 25.8961 38.3418 26.2542C38.8626 26.5797 39.3184 26.9784 39.709 27.4504C40.0996 27.9224 40.4089 28.4514 40.6367 29.0374C40.8971 29.6233 41.0518 30.2174 41.1006 30.8196C41.1494 31.4218 41.125 32.0321 41.0273 32.6506C40.8971 33.2691 40.6855 33.8469 40.3926 34.384C40.0996 34.9211 39.7415 35.4176 39.3184 35.8733C38.8626 36.2965 38.3662 36.6545 37.8291 36.9475C37.292 37.2405 36.7142 37.4521 36.0957 37.5823C35.4772 37.6799 34.8669 37.7043 34.2646 37.6555C33.6624 37.6067 33.0684 37.4521 32.4824 37.1917C31.8965 36.9638 31.3675 36.6545 30.8955 36.2639C30.4235 35.8733 30.0247 35.4176 29.6992 34.8967ZM37.4629 33.1877C37.6257 32.9273 37.7559 32.6425 37.8535 32.3333C37.9512 32.024 38 31.7229 38 31.4299C38 31.0068 37.9186 30.608 37.7559 30.2336C37.5931 29.8593 37.3652 29.5256 37.0723 29.2327C36.7793 28.9397 36.4456 28.7118 36.0713 28.5491C35.6969 28.3863 35.2982 28.3049 34.875 28.3049C34.582 28.3049 34.2809 28.3538 33.9717 28.4514C33.6624 28.5491 33.3776 28.6793 33.1172 28.842C32.8893 29.0048 32.6777 29.2083 32.4824 29.4524C32.2871 29.6965 32.1243 29.9651 31.9941 30.2581C31.8639 30.5185 31.7826 30.8033 31.75 31.1125C31.7174 31.4218 31.7337 31.7229 31.7988 32.0159C31.8639 32.3414 31.9697 32.6425 32.1162 32.9192C32.2627 33.1959 32.4499 33.4319 32.6777 33.6272C32.873 33.8551 33.1091 34.0422 33.3857 34.1887C33.6624 34.3352 33.9635 34.441 34.2891 34.5061C34.582 34.5712 34.8831 34.5875 35.1924 34.5549C35.5016 34.5224 35.7865 34.441 36.0469 34.3108C36.3398 34.1806 36.6084 34.0178 36.8525 33.8225C37.0967 33.6272 37.3001 33.4156 37.4629 33.1877Z" fill="url(#paint0_linear_43_43)"/>
</g>
<defs>
<linearGradient id="paint0_linear_43_43" x1="0.5" y1="3.30493" x2="51.6526" y2="35.1727" gradientUnits="userSpaceOnUse">
<stop stop-color="#2600FC"/>
<stop offset="1" stop-color="#FF00EA"/>
</linearGradient>
<clipPath id="clip0_43_43">
<rect width="50" height="50" fill="white" transform="matrix(1 0 0 -1 0.5 50.1799)"/>
</clipPath>
</defs>
</svg>
