<svg width="40" height="48" viewBox="0 0 40 48" fill="none" xmlns="http://www.w3.org/2000/svg">
<path d="M26.5625 4.99243H31.25C31.6732 4.99243 32.0719 5.07381 32.4463 5.23657C32.8206 5.39933 33.1543 5.6272 33.4473 5.92017C33.7402 6.21313 33.9681 6.54679 34.1309 6.92114C34.2936 7.29549 34.375 7.69426 34.375 8.11743V15.9299H31.25V8.11743H26.5625V12.8049H7.8125V8.11743H3.125V40.9299H17.1875V44.0549H3.125C2.70182 44.0549 2.30306 43.9736 1.92871 43.8108C1.55436 43.648 1.2207 43.4202 0.927734 43.1272C0.634766 42.8342 0.406901 42.5006 0.244141 42.1262C0.0813802 41.7519 0 41.3531 0 40.9299V8.11743C0 7.69426 0.0813802 7.29549 0.244141 6.92114C0.406901 6.54679 0.634766 6.21313 0.927734 5.92017C1.2207 5.6272 1.55436 5.39933 1.92871 5.23657C2.30306 5.07381 2.70182 4.99243 3.125 4.99243H7.8125V3.42993C7.8125 3.00676 7.89388 2.60799 8.05664 2.23364C8.2194 1.85929 8.44727 1.52563 8.74023 1.23267C9.0332 0.939697 9.36686 0.711834 9.74121 0.549072C10.1156 0.386311 10.5143 0.304932 10.9375 0.304932H23.4375C23.8607 0.304932 24.2594 0.386311 24.6338 0.549072C25.0081 0.711834 25.3418 0.939697 25.6348 1.23267C25.9277 1.52563 26.1556 1.85929 26.3184 2.23364C26.4811 2.60799 26.5625 3.00676 26.5625 3.42993V4.99243ZM10.9375 9.67993H23.4375V3.42993H10.9375V9.67993ZM37.9395 23.9377C38.2975 24.6213 38.5742 25.3456 38.7695 26.1106C38.9648 26.8756 39.0625 27.6487 39.0625 28.4299C39.0625 29.081 38.9974 29.732 38.8672 30.3831C38.737 31.0341 38.5254 31.6526 38.2324 32.2385C37.972 32.857 37.6465 33.4267 37.2559 33.9475C36.8652 34.4683 36.4258 34.9566 35.9375 35.4124V47.1799L29.6875 44.2014L23.4375 47.1799V35.4124C22.8516 34.8915 22.3389 34.3056 21.8994 33.6545C21.46 33.0035 21.11 32.3036 20.8496 31.5549C20.5892 30.8388 20.4264 30.0901 20.3613 29.3088C20.2962 28.5276 20.3125 27.7463 20.4102 26.9651C20.5404 26.1838 20.7601 25.4351 21.0693 24.719C21.3786 24.0028 21.7773 23.3355 22.2656 22.717C22.7214 22.0986 23.2585 21.5452 23.877 21.0569C24.4954 20.5686 25.1628 20.1617 25.8789 19.8362C26.5951 19.5107 27.3356 19.2828 28.1006 19.1526C28.8656 19.0224 29.6387 18.9898 30.4199 19.0549C31.2012 19.12 31.9661 19.2828 32.7148 19.5432C33.4635 19.8036 34.1634 20.1454 34.8145 20.5686C35.4655 20.9918 36.0514 21.4882 36.5723 22.0579C37.0931 22.6275 37.5488 23.2542 37.9395 23.9377ZM29.6875 40.7834L32.8125 42.2483V37.2678C31.8034 37.6259 30.7617 37.8049 29.6875 37.8049C28.6133 37.8049 27.5716 37.6259 26.5625 37.2678V42.2483L29.6875 40.7834ZM26.2207 33.6057C26.7415 33.9638 27.2949 34.2323 27.8809 34.4114C28.4668 34.5904 29.069 34.6799 29.6875 34.6799C30.5013 34.6799 31.2907 34.5172 32.0557 34.1917C32.8206 33.8661 33.4961 33.4104 34.082 32.8245C34.668 32.2385 35.1237 31.5631 35.4492 30.7981C35.7747 30.0331 35.9375 29.2437 35.9375 28.4299C35.9375 27.8114 35.848 27.2092 35.6689 26.6233C35.4899 26.0374 35.2214 25.484 34.8633 24.9631C34.5378 24.4423 34.139 23.9866 33.667 23.5959C33.195 23.2053 32.666 22.8961 32.0801 22.6682C31.4941 22.4078 30.9001 22.2532 30.2979 22.2043C29.6956 22.1555 29.0853 22.1799 28.4668 22.2776C27.8483 22.4078 27.2705 22.6194 26.7334 22.9124C26.1963 23.2053 25.6999 23.5797 25.2441 24.0354C24.821 24.4586 24.4629 24.9387 24.1699 25.4758C23.877 26.0129 23.6654 26.5907 23.5352 27.2092C23.4375 27.8277 23.4131 28.4381 23.4619 29.0403C23.5107 29.6425 23.6654 30.2366 23.9258 30.8225C24.1536 31.4084 24.4629 31.9374 24.8535 32.4094C25.2441 32.8814 25.6999 33.2802 26.2207 33.6057Z" fill="url(#paint0_linear_798_183)"/>
<defs>
<linearGradient id="paint0_linear_798_183" x1="3.61844e-07" y1="0.304931" x2="49.9384" y2="26.231" gradientUnits="userSpaceOnUse">
<stop stop-color="#FC0056"/>
<stop offset="1" stop-color="#FF7D57"/>
</linearGradient>
</defs>
</svg>

