<svg width="50" height="51" viewBox="0 0 50 51" fill="none" xmlns="http://www.w3.org/2000/svg">
<path d="M3.125 43.9299H9.375V40.8049H3.125V9.55493H14.9902L21.2402 15.8049H40.625V28.3049H43.75V15.8049C43.75 15.3818 43.6686 14.983 43.5059 14.6086C43.3431 14.2343 43.1152 13.9006 42.8223 13.6077C42.5293 13.3147 42.1956 13.0868 41.8213 12.9241C41.4469 12.7613 41.0482 12.6799 40.625 12.6799H22.5098L17.1875 7.35767C17.0573 7.1949 16.9027 7.05656 16.7236 6.94263C16.5446 6.82869 16.3574 6.73918 16.1621 6.67407C15.9668 6.57642 15.7715 6.51131 15.5762 6.47876C15.3809 6.44621 15.1855 6.42993 14.9902 6.42993H3.125C2.70182 6.42993 2.30306 6.51131 1.92871 6.67407C1.55436 6.83683 1.2207 7.0647 0.927734 7.35767C0.634766 7.65063 0.406901 7.98429 0.244141 8.35864C0.0813802 8.73299 0 9.13176 0 9.55493V40.8049C0 41.2281 0.0813802 41.6269 0.244141 42.0012C0.406901 42.3756 0.634766 42.7092 0.927734 43.0022C1.2207 43.2952 1.55436 43.523 1.92871 43.6858C2.30306 43.8486 2.70182 43.9299 3.125 43.9299ZM23.4375 32.9924H12.5V22.0549H23.4375V32.9924ZM15.625 29.8674H20.3125V25.1799H15.625V29.8674ZM23.4375 47.0549H12.5V36.1174H23.4375V47.0549ZM15.625 43.9299H20.3125V39.2424H15.625V43.9299ZM26.5625 32.9924H37.5V22.0549H26.5625V32.9924ZM34.375 29.8674H29.6875V25.1799H34.375V29.8674ZM37.5 47.0549H26.5625V36.1174H37.5V47.0549ZM29.6875 43.9299H34.375V39.2424H29.6875V43.9299Z" fill="url(#paint0_linear_43_16)"/>
<defs>
<linearGradient id="paint0_linear_43_16" x1="4.05265e-07" y1="6.42993" x2="48.9653" y2="39.2816" gradientUnits="userSpaceOnUse">
<stop stop-color="#2600FC"/>
<stop offset="1" stop-color="#FF00EA"/>
</linearGradient>
</defs>
</svg>
