<svg width="50" height="51" viewBox="0 0 50 51" fill="none" xmlns="http://www.w3.org/2000/svg">
<g clip-path="url(#clip0_43_34)">
<path d="M26.5625 7.99243H31.25C31.6732 7.99243 32.0719 8.07381 32.4463 8.23657C32.8206 8.39933 33.1543 8.6272 33.4473 8.92017C33.7402 9.21313 33.9681 9.54679 34.1309 9.92114C34.2936 10.2955 34.375 10.6943 34.375 11.1174V18.9299H31.25V11.1174H26.5625V15.8049H7.8125V11.1174H3.125V43.9299H17.1875V47.0549H3.125C2.70182 47.0549 2.30306 46.9736 1.92871 46.8108C1.55436 46.648 1.2207 46.4202 0.927734 46.1272C0.634766 45.8342 0.406901 45.5006 0.244141 45.1262C0.0813802 44.7519 0 44.3531 0 43.9299V11.1174C0 10.6943 0.0813802 10.2955 0.244141 9.92114C0.406901 9.54679 0.634766 9.21313 0.927734 8.92017C1.2207 8.6272 1.55436 8.39933 1.92871 8.23657C2.30306 8.07381 2.70182 7.99243 3.125 7.99243H7.8125V6.42993C7.8125 6.00676 7.89388 5.60799 8.05664 5.23364C8.2194 4.85929 8.44727 4.52563 8.74023 4.23267C9.0332 3.9397 9.36686 3.71183 9.74121 3.54907C10.1156 3.38631 10.5143 3.30493 10.9375 3.30493H23.4375C23.8607 3.30493 24.2594 3.38631 24.6338 3.54907C25.0081 3.71183 25.3418 3.9397 25.6348 4.23267C25.9277 4.52563 26.1556 4.85929 26.3184 5.23364C26.4811 5.60799 26.5625 6.00676 26.5625 6.42993V7.99243ZM10.9375 12.6799H23.4375V6.42993H10.9375V12.6799ZM37.9395 26.9377C38.2975 27.6213 38.5742 28.3456 38.7695 29.1106C38.9648 29.8756 39.0625 30.6487 39.0625 31.4299C39.0625 32.081 38.9974 32.732 38.8672 33.3831C38.737 34.0341 38.5254 34.6526 38.2324 35.2385C37.972 35.857 37.6465 36.4267 37.2559 36.9475C36.8652 37.4683 36.4258 37.9566 35.9375 38.4124V50.1799L29.6875 47.2014L23.4375 50.1799V38.4124C22.8516 37.8915 22.3389 37.3056 21.8994 36.6545C21.46 36.0035 21.11 35.3036 20.8496 34.5549C20.5892 33.8388 20.4264 33.0901 20.3613 32.3088C20.2962 31.5276 20.3125 30.7463 20.4102 29.9651C20.5404 29.1838 20.7601 28.4351 21.0693 27.719C21.3786 27.0028 21.7773 26.3355 22.2656 25.717C22.7214 25.0986 23.2585 24.5452 23.877 24.0569C24.4954 23.5686 25.1628 23.1617 25.8789 22.8362C26.5951 22.5107 27.3356 22.2828 28.1006 22.1526C28.8656 22.0224 29.6387 21.9898 30.4199 22.0549C31.2012 22.12 31.9661 22.2828 32.7148 22.5432C33.4635 22.8036 34.1634 23.1454 34.8145 23.5686C35.4655 23.9918 36.0514 24.4882 36.5723 25.0579C37.0931 25.6275 37.5488 26.2542 37.9395 26.9377ZM29.6875 43.7834L32.8125 45.2483V40.2678C31.8034 40.6259 30.7617 40.8049 29.6875 40.8049C28.6133 40.8049 27.5716 40.6259 26.5625 40.2678V45.2483L29.6875 43.7834ZM26.2207 36.6057C26.7415 36.9638 27.2949 37.2323 27.8809 37.4114C28.4668 37.5904 29.069 37.6799 29.6875 37.6799C30.5013 37.6799 31.2907 37.5172 32.0557 37.1917C32.8206 36.8661 33.4961 36.4104 34.082 35.8245C34.668 35.2385 35.1237 34.5631 35.4492 33.7981C35.7747 33.0331 35.9375 32.2437 35.9375 31.4299C35.9375 30.8114 35.848 30.2092 35.6689 29.6233C35.4899 29.0374 35.2214 28.484 34.8633 27.9631C34.5378 27.4423 34.139 26.9866 33.667 26.5959C33.195 26.2053 32.666 25.8961 32.0801 25.6682C31.4941 25.4078 30.9001 25.2532 30.2979 25.2043C29.6956 25.1555 29.0853 25.1799 28.4668 25.2776C27.8483 25.4078 27.2705 25.6194 26.7334 25.9124C26.1963 26.2053 25.6999 26.5797 25.2441 27.0354C24.821 27.4586 24.4629 27.9387 24.1699 28.4758C23.877 29.0129 23.6654 29.5907 23.5352 30.2092C23.4375 30.8277 23.4131 31.4381 23.4619 32.0403C23.5107 32.6425 23.6654 33.2366 23.9258 33.8225C24.1536 34.4084 24.4629 34.9374 24.8535 35.4094C25.2441 35.8814 25.6999 36.2802 26.2207 36.6057Z" fill="url(#paint0_linear_43_34)"/>
</g>
<defs>
<linearGradient id="paint0_linear_43_34" x1="3.61844e-07" y1="3.30493" x2="49.9384" y2="29.231" gradientUnits="userSpaceOnUse">
<stop stop-color="#2600FC"/>
<stop offset="1" stop-color="#FF00EA"/>
</linearGradient>
<clipPath id="clip0_43_34">
<rect width="50" height="50" fill="white" transform="matrix(1 0 0 -1 0 50.1799)"/>
</clipPath>
</defs>
</svg>
