<svg width="51" height="51" viewBox="0 0 51 51" fill="none" xmlns="http://www.w3.org/2000/svg">
<g clip-path="url(#clip0_43_25)">
<rect width="50" height="50" transform="matrix(1 0 0 -1 0.5 50.1799)" fill="white"/>
<path d="M10.2005 7.01591C11.9909 5.81148 13.9277 4.89188 16.0111 4.25712C18.0944 3.62235 20.2103 3.30497 22.3587 3.30497C23.8236 3.30497 25.2559 3.45145 26.6556 3.74442C28.0553 4.00484 29.4144 4.41174 30.7327 4.96513C32.0511 5.51851 33.3125 6.18583 34.5169 6.96708C35.6888 7.78088 36.7956 8.69234 37.8372 9.70145C38.8464 10.7431 39.7578 11.8499 40.5716 13.0218C41.3529 14.2262 42.0202 15.4876 42.5736 16.8059C43.127 18.1243 43.5339 19.4834 43.7943 20.8831C44.0872 22.2828 44.2337 23.7151 44.2337 25.18C44.2337 27.3284 43.9163 29.4443 43.2816 31.5276C42.6468 33.611 41.7272 35.5478 40.5228 37.3382C39.3509 39.1285 37.9268 40.7073 36.2503 42.0745C34.5739 43.4417 32.7266 44.5485 30.7083 45.3948C28.7227 46.2086 26.6556 46.7213 24.5072 46.9329C22.3587 47.1445 20.2266 47.0387 18.1107 46.6155C15.9622 46.1923 13.9359 45.4762 12.0316 44.4671C10.1273 43.458 8.41016 42.1884 6.88021 40.6585C5.35026 39.1285 4.08073 37.4114 3.07161 35.5071C2.0625 33.6028 1.34635 31.5765 0.923177 29.428C0.5 27.3121 0.394206 25.18 0.605794 23.0315C0.817383 20.8831 1.33008 18.816 2.14388 16.8304C2.99023 14.8121 4.09701 12.9648 5.46419 11.2884C6.83138 9.61194 8.41016 8.18778 10.2005 7.01591ZM11.9583 40.7561C13.4883 41.7978 15.1403 42.5872 16.9144 43.1243C18.6885 43.6614 20.5033 43.93 22.3587 43.93C24.8327 43.93 27.2253 43.458 29.5365 42.514C31.8477 41.5699 33.8822 40.219 35.64 38.4612C37.3978 36.7034 38.7487 34.6689 39.6927 32.3577C40.6367 30.0465 41.1087 27.6539 41.1087 25.18C41.1087 23.3245 40.8402 21.5097 40.3031 19.7356C39.766 17.9615 38.9766 16.3095 37.9349 14.7796C36.9258 13.2171 35.7051 11.8499 34.2728 10.678C32.8405 9.50614 31.2617 8.56213 29.5365 7.84599C27.8112 7.12984 26.029 6.68225 24.1898 6.50321C22.3506 6.32418 20.5195 6.4137 18.6966 6.77177C16.8737 7.12984 15.1484 7.74833 13.5208 8.62724C11.8932 9.50614 10.4121 10.5966 9.07747 11.8987C7.77539 13.2334 6.6849 14.7145 5.80599 16.3421C4.92708 17.9697 4.30859 19.6949 3.95052 21.5179C3.59245 23.3408 3.50293 25.1718 3.68197 27.011C3.861 28.8502 4.30859 30.6324 5.02474 32.3577C5.74089 34.083 6.6849 35.6617 7.85677 37.094C9.02865 38.5263 10.3958 39.747 11.9583 40.7561ZM11.4212 25.8147L19.2337 33.6272L33.2962 19.5647L31.099 17.3675L19.2337 29.2327L13.6185 23.6175L11.4212 25.8147Z" fill="url(#paint0_linear_43_25)"/>
</g>
<defs>
<linearGradient id="paint0_linear_43_25" x1="0.5" y1="3.30497" x2="51.6335" y2="35.1609" gradientUnits="userSpaceOnUse">
<stop stop-color="#2600FC"/>
<stop offset="1" stop-color="#FF00EA"/>
</linearGradient>
<clipPath id="clip0_43_25">
<rect width="50" height="50" fill="white" transform="matrix(1 0 0 -1 0.5 50.1799)"/>
</clipPath>
</defs>
</svg>
