<svg width="45" height="45" viewBox="0 0 45 45" fill="none" xmlns="http://www.w3.org/2000/svg">
<path d="M13.3418 11.7307C12.821 12.0888 12.2676 12.3573 11.6816 12.5364C11.0957 12.7154 10.4935 12.8049 9.875 12.8049C9.0612 12.8049 8.26367 12.6503 7.48242 12.3411C6.70117 12.0318 6.01758 11.5842 5.43164 10.9983C4.8457 10.4124 4.39811 9.72876 4.08887 8.94751C3.77962 8.16626 3.625 7.36873 3.625 6.55493C3.625 5.93644 3.71452 5.33423 3.89355 4.74829C4.07259 4.16235 4.34115 3.60897 4.69922 3.08813C5.02474 2.5673 5.4235 2.11157 5.89551 1.72095C6.36751 1.33032 6.89648 1.02108 7.48242 0.793213C8.06836 0.532795 8.66243 0.378174 9.26465 0.329346C9.86686 0.280518 10.4772 0.304932 11.0957 0.402588C11.7142 0.532795 12.292 0.744385 12.8291 1.03735C13.3662 1.33032 13.8626 1.6884 14.3184 2.11157C14.7415 2.5673 15.0996 3.06372 15.3926 3.60083C15.6855 4.13794 15.8971 4.71574 16.0273 5.33423C16.125 5.95272 16.1494 6.56307 16.1006 7.16528C16.0518 7.7675 15.8971 8.36157 15.6367 8.94751C15.4089 9.53345 15.0996 10.0624 14.709 10.5344C14.3184 11.0064 13.8626 11.4052 13.3418 11.7307ZM11.6328 3.96704C11.3724 3.80428 11.0876 3.67407 10.7783 3.57642C10.4691 3.47876 10.168 3.42993 9.875 3.42993C9.45182 3.42993 9.05306 3.51131 8.67871 3.67407C8.30436 3.83683 7.9707 4.0647 7.67773 4.35767C7.38477 4.65063 7.1569 4.98429 6.99414 5.35864C6.83138 5.73299 6.75 6.13176 6.75 6.55493C6.75 6.8479 6.79883 7.14901 6.89648 7.45825C6.99414 7.7675 7.12435 8.05233 7.28711 8.31274C7.44987 8.54061 7.65332 8.7522 7.89746 8.94751C8.1416 9.14282 8.41016 9.30558 8.70312 9.43579C8.96354 9.566 9.24837 9.64738 9.55762 9.67993C9.86686 9.71248 10.168 9.69621 10.4609 9.6311C10.7865 9.566 11.0876 9.46021 11.3643 9.31372C11.641 9.16724 11.877 8.98006 12.0723 8.7522C12.3001 8.55688 12.4873 8.32088 12.6338 8.04419C12.7803 7.7675 12.8861 7.46639 12.9512 7.14087C13.0163 6.8479 13.0326 6.54679 13 6.23755C12.9674 5.9283 12.8861 5.64347 12.7559 5.38306C12.6257 5.09009 12.4629 4.82153 12.2676 4.57739C12.0723 4.33325 11.8607 4.1298 11.6328 3.96704ZM34.875 15.9299V14.3674C34.875 13.8466 34.8262 13.3339 34.7285 12.8293C34.6309 12.3248 34.4844 11.8446 34.2891 11.3889C34.0938 10.9006 33.8496 10.4449 33.5566 10.0217C33.2637 9.59855 32.9382 9.20793 32.5801 8.84985C32.222 8.49178 31.8314 8.16626 31.4082 7.87329C30.985 7.58032 30.5293 7.33618 30.041 7.14087C29.5853 6.94556 29.1051 6.79907 28.6006 6.70142C28.096 6.60376 27.5833 6.55493 27.0625 6.55493H22.375V3.42993H27.0625C28.5273 3.42993 29.9271 3.70662 31.2617 4.26001C32.5964 4.8134 33.7682 5.61092 34.7773 6.65259C35.819 7.6617 36.6165 8.83358 37.1699 10.1682C37.7233 11.5028 38 12.9026 38 14.3674V15.9299H34.875ZM6.75 28.4299V29.9924C6.75 31.0341 6.94531 32.0351 7.33594 32.9954C7.72656 33.9556 8.29622 34.7939 9.04492 35.51C9.76107 36.2587 10.5993 36.8284 11.5596 37.219C12.5199 37.6096 13.5208 37.8049 14.5625 37.8049H19.25V40.9299H14.5625C13.0977 40.9299 11.6979 40.6532 10.3633 40.0999C9.02865 39.5465 7.85677 38.7489 6.84766 37.7073C5.80599 36.6982 5.00846 35.5263 4.45508 34.1917C3.90169 32.857 3.625 31.4573 3.625 29.9924V28.4299H6.75ZM14.5625 14.3674H5.1875C4.56901 14.3674 3.97494 14.4895 3.40527 14.7336C2.83561 14.9778 2.32292 15.3114 1.86719 15.7346C1.44401 16.1903 1.11035 16.703 0.866211 17.2727C0.62207 17.8424 0.5 18.4364 0.5 19.0549V22.1799H3.625V19.0549C3.625 18.8596 3.66569 18.6643 3.74707 18.469C3.82845 18.2737 3.93424 18.0946 4.06445 17.9319C4.22721 17.8017 4.40625 17.6959 4.60156 17.6145C4.79688 17.5331 4.99219 17.4924 5.1875 17.4924H14.5625C14.7578 17.4924 14.9531 17.5331 15.1484 17.6145C15.3438 17.6959 15.5228 17.8017 15.6855 17.9319C15.8158 18.0946 15.9215 18.2737 16.0029 18.469C16.0843 18.6643 16.125 18.8596 16.125 19.0549V22.1799H19.25V19.0549C19.25 18.4364 19.1279 17.8424 18.8838 17.2727C18.6396 16.703 18.306 16.1903 17.8828 15.7346C17.4271 15.3114 16.9144 14.9778 16.3447 14.7336C15.7751 14.4895 15.181 14.3674 14.5625 14.3674ZM30.1875 36.2424C29.569 36.2424 28.9749 36.3645 28.4053 36.6086C27.8356 36.8528 27.3229 37.1864 26.8672 37.6096C26.444 38.0653 26.1104 38.578 25.8662 39.1477C25.6221 39.7174 25.5 40.3114 25.5 40.9299V44.0549H28.625V40.9299C28.625 40.7346 28.6657 40.5393 28.7471 40.344C28.8285 40.1487 28.9342 39.9696 29.0645 39.8069C29.2272 39.6767 29.4062 39.5709 29.6016 39.4895C29.7969 39.4081 29.9922 39.3674 30.1875 39.3674H39.5625C39.7578 39.3674 39.9531 39.4081 40.1484 39.4895C40.3438 39.5709 40.5228 39.6767 40.6855 39.8069C40.8158 39.9696 40.9216 40.1487 41.0029 40.344C41.0843 40.5393 41.125 40.7346 41.125 40.9299V44.0549H44.25V40.9299C44.25 40.3114 44.1279 39.7174 43.8838 39.1477C43.6396 38.578 43.306 38.0653 42.8828 37.6096C42.4271 37.1864 41.9144 36.8528 41.3447 36.6086C40.7751 36.3645 40.181 36.2424 39.5625 36.2424H30.1875ZM29.6992 31.8967C29.3411 31.3759 29.0726 30.8225 28.8936 30.2366C28.7145 29.6506 28.625 29.0484 28.625 28.4299C28.625 27.6161 28.7796 26.8186 29.0889 26.0374C29.3981 25.2561 29.8457 24.5725 30.4316 23.9866C31.0176 23.4006 31.7012 22.953 32.4824 22.6438C33.2637 22.3346 34.0612 22.1799 34.875 22.1799C35.4935 22.1799 36.0957 22.2694 36.6816 22.4485C37.2676 22.6275 37.821 22.8961 38.3418 23.2542C38.8626 23.5797 39.3184 23.9784 39.709 24.4504C40.0996 24.9224 40.4089 25.4514 40.6367 26.0374C40.8971 26.6233 41.0518 27.2174 41.1006 27.8196C41.1494 28.4218 41.125 29.0321 41.0273 29.6506C40.8971 30.2691 40.6855 30.8469 40.3926 31.384C40.0996 31.9211 39.7415 32.4176 39.3184 32.8733C38.8626 33.2965 38.3662 33.6545 37.8291 33.9475C37.292 34.2405 36.7142 34.4521 36.0957 34.5823C35.4772 34.6799 34.8669 34.7043 34.2646 34.6555C33.6624 34.6067 33.0684 34.4521 32.4824 34.1917C31.8965 33.9638 31.3675 33.6545 30.8955 33.2639C30.4235 32.8733 30.0247 32.4176 29.6992 31.8967ZM37.4629 30.1877C37.6257 29.9273 37.7559 29.6425 37.8535 29.3333C37.9512 29.024 38 28.7229 38 28.4299C38 28.0068 37.9186 27.608 37.7559 27.2336C37.5931 26.8593 37.3652 26.5256 37.0723 26.2327C36.7793 25.9397 36.4456 25.7118 36.0713 25.5491C35.6969 25.3863 35.2982 25.3049 34.875 25.3049C34.582 25.3049 34.2809 25.3538 33.9717 25.4514C33.6624 25.5491 33.3776 25.6793 33.1172 25.842C32.8893 26.0048 32.6777 26.2083 32.4824 26.4524C32.2871 26.6965 32.1243 26.9651 31.9941 27.2581C31.8639 27.5185 31.7826 27.8033 31.75 28.1125C31.7174 28.4218 31.7337 28.7229 31.7988 29.0159C31.8639 29.3414 31.9697 29.6425 32.1162 29.9192C32.2627 30.1959 32.4499 30.4319 32.6777 30.6272C32.873 30.8551 33.1091 31.0422 33.3857 31.1887C33.6624 31.3352 33.9635 31.441 34.2891 31.5061C34.582 31.5712 34.8831 31.5875 35.1924 31.5549C35.5016 31.5224 35.7865 31.441 36.0469 31.3108C36.3398 31.1806 36.6084 31.0178 36.8525 30.8225C37.0967 30.6272 37.3001 30.4156 37.4629 30.1877Z" fill="url(#paint0_linear_798_192)"/>
<defs>
<linearGradient id="paint0_linear_798_192" x1="0.5" y1="0.304931" x2="51.6526" y2="32.1727" gradientUnits="userSpaceOnUse">
<stop stop-color="#FC001E"/>
<stop offset="1" stop-color="#FF7D57"/>
</linearGradient>
</defs>
</svg>

