<svg width="44" height="42" viewBox="0 0 44 42" fill="none" xmlns="http://www.w3.org/2000/svg">
<path d="M3.125 37.9299H9.375V34.8049H3.125V3.55493H14.9902L21.2402 9.80493H40.625V22.3049H43.75V9.80493C43.75 9.38175 43.6686 8.98299 43.5059 8.60864C43.3431 8.23429 43.1152 7.90063 42.8223 7.60767C42.5293 7.3147 42.1956 7.08683 41.8213 6.92407C41.4469 6.76131 41.0482 6.67993 40.625 6.67993H22.5098L17.1875 1.35767C17.0573 1.1949 16.9027 1.05656 16.7236 0.942627C16.5446 0.828693 16.3574 0.739178 16.1621 0.674072C15.9668 0.576416 15.7715 0.511311 15.5762 0.47876C15.3809 0.446209 15.1855 0.429932 14.9902 0.429932H3.125C2.70182 0.429932 2.30306 0.511311 1.92871 0.674072C1.55436 0.836834 1.2207 1.0647 0.927734 1.35767C0.634766 1.65063 0.406901 1.98429 0.244141 2.35864C0.0813802 2.73299 0 3.13176 0 3.55493V34.8049C0 35.2281 0.0813802 35.6269 0.244141 36.0012C0.406901 36.3756 0.634766 36.7092 0.927734 37.0022C1.2207 37.2952 1.55436 37.523 1.92871 37.6858C2.30306 37.8486 2.70182 37.9299 3.125 37.9299ZM23.4375 26.9924H12.5V16.0549H23.4375V26.9924ZM15.625 23.8674H20.3125V19.1799H15.625V23.8674ZM23.4375 41.0549H12.5V30.1174H23.4375V41.0549ZM15.625 37.9299H20.3125V33.2424H15.625V37.9299ZM26.5625 26.9924H37.5V16.0549H26.5625V26.9924ZM34.375 23.8674H29.6875V19.1799H34.375V23.8674ZM37.5 41.0549H26.5625V30.1174H37.5V41.0549ZM29.6875 37.9299H34.375V33.2424H29.6875V37.9299Z" fill="url(#paint0_linear_798_165)"/>
<defs>
<linearGradient id="paint0_linear_798_165" x1="4.05265e-07" y1="0.429931" x2="48.9653" y2="33.2816" gradientUnits="userSpaceOnUse">
<stop stop-color="#FC001E"/>
<stop offset="1" stop-color="#FF7D57"/>
</linearGradient>
</defs>
</svg>
