<svg width="45" height="45" viewBox="0 0 45 45" fill="none" xmlns="http://www.w3.org/2000/svg">
<path d="M10.2005 4.01579C11.9909 2.81136 13.9277 1.89176 16.0111 1.257C18.0944 0.622231 20.2103 0.304848 22.3587 0.304848C23.8236 0.304848 25.2559 0.451332 26.6556 0.744301C28.0553 1.00472 29.4144 1.41162 30.7327 1.965C32.0511 2.51839 33.3125 3.18571 34.5169 3.96696C35.6888 4.78076 36.7956 5.69222 37.8372 6.70133C38.8464 7.743 39.7578 8.84977 40.5716 10.0216C41.3529 11.2261 42.0202 12.4875 42.5736 13.8058C43.127 15.1242 43.5339 16.4832 43.7943 17.883C44.0872 19.2827 44.2337 20.715 44.2337 22.1799C44.2337 24.3283 43.9163 26.4442 43.2816 28.5275C42.6468 30.6108 41.7272 32.5477 40.5228 34.3381C39.3509 36.1284 37.9268 37.7072 36.2503 39.0744C34.5739 40.4416 32.7266 41.5483 30.7083 42.3947C28.7227 43.2085 26.6556 43.7212 24.5072 43.9328C22.3587 44.1444 20.2266 44.0386 18.1107 43.6154C15.9622 43.1922 13.9359 42.4761 12.0316 41.467C10.1273 40.4578 8.41016 39.1883 6.88021 37.6584C5.35026 36.1284 4.08073 34.4113 3.07161 32.507C2.0625 30.6027 1.34635 28.5763 0.923177 26.4279C0.5 24.312 0.394206 22.1799 0.605794 20.0314C0.817383 17.883 1.33008 15.8159 2.14388 13.8302C2.99023 11.812 4.09701 9.96468 5.46419 8.28825C6.83138 6.61182 8.41016 5.18766 10.2005 4.01579ZM11.9583 37.756C13.4883 38.7977 15.1403 39.5871 16.9144 40.1242C18.6885 40.6613 20.5033 40.9299 22.3587 40.9299C24.8327 40.9299 27.2253 40.4578 29.5365 39.5138C31.8477 38.5698 33.8822 37.2189 35.64 35.4611C37.3978 33.7033 38.7487 31.6688 39.6927 29.3576C40.6367 27.0464 41.1087 24.6538 41.1087 22.1799C41.1087 20.3244 40.8402 18.5096 40.3031 16.7355C39.766 14.9614 38.9766 13.3094 37.9349 11.7795C36.9258 10.217 35.7051 8.84977 34.2728 7.67789C32.8405 6.50602 31.2617 5.56201 29.5365 4.84586C27.8112 4.12972 26.029 3.68213 24.1898 3.50309C22.3506 3.32405 20.5195 3.41357 18.6966 3.77164C16.8737 4.12972 15.1484 4.74821 13.5208 5.62711C11.8932 6.50602 10.4121 7.59652 9.07747 8.8986C7.77539 10.2332 6.6849 11.7144 5.80599 13.342C4.92708 14.9696 4.30859 16.6948 3.95052 18.5177C3.59245 20.3407 3.50293 22.1717 3.68197 24.0109C3.861 25.8501 4.30859 27.6323 5.02474 29.3576C5.74089 31.0828 6.6849 32.6616 7.85677 34.0939C9.02865 35.5262 10.3958 36.7469 11.9583 37.756ZM11.4212 22.8146L19.2337 30.6271L33.2962 16.5646L31.099 14.3673L19.2337 26.2326L13.6185 20.6174L11.4212 22.8146Z" fill="url(#paint0_linear_798_174)"/>
<defs>
<linearGradient id="paint0_linear_798_174" x1="0.5" y1="0.304847" x2="51.6335" y2="32.1607" gradientUnits="userSpaceOnUse">
<stop stop-color="#FC001E"/>
<stop offset="1" stop-color="#FF7D57"/>
</linearGradient>
</defs>
</svg>
