<svg width="44" height="44" viewBox="0 0 44 44" fill="none" xmlns="http://www.w3.org/2000/svg">
<g clip-path="url(#clip0_541_5962)">
<path opacity="0.01" d="M44 0H0V44H44V0Z" fill="white"/>
<path d="M19.5381 28.7569V32.7121H27.2866V35.3493H16.901V28.7569H8.25044V17.4687H19.5375V21.7944H25.9677V17.4687H37.2559V28.7569H25.9677V24.4317H19.5375V27.4385L19.5381 28.7569ZM21.9519 6.92186L33.9408 0L35.2591 2.2836L22.6586 9.55856H8.25077V6.92175L21.9519 6.92186ZM29.345 14.8324L39.2138 9.13451L40.5318 11.4181L34.6189 14.8324H29.345ZM23.3651 12.1957L36.5761 4.56797L37.8942 6.85157L24.0716 14.8324H8.25033V12.1957H23.3651ZM37.2559 31.394V44H8.25V31.394H10.8865V41.3636H34.6189V31.394H37.2559ZM16.9004 20.1058H10.8863V26.1196H16.9004V25.3793V20.1058ZM34.6192 20.1058H28.6052V26.1196H34.6192V20.1058Z" fill="black"/>
</g>
<defs>
<clipPath id="clip0_541_5962">
<rect width="44" height="44" fill="white"/>
</clipPath>
</defs>
</svg>
