<svg width="45" height="44" viewBox="0 0 45 44" fill="none" xmlns="http://www.w3.org/2000/svg">
<path fill-rule="evenodd" clip-rule="evenodd" d="M24.375 38.5H22.5L1.875 29.3333V33L22.5 42.1667L24.375 40.3333V38.5Z" fill="#33307C"/>
<path fill-rule="evenodd" clip-rule="evenodd" d="M24.375 3.66666L22.5 1.83333L1.875 11L3.75 14.6667H5.625V12.8333L22.5 5.49999H24.375V3.66666ZM24.375 12.8333L22.5 11L10.1756 16.478L13.2769 18.7403L22.5 14.6227L24.375 14.6667V12.8333Z" fill="#7F85DB"/>
<path fill-rule="evenodd" clip-rule="evenodd" d="M1.875 14.6227L43.125 33V29.3333L1.875 11V14.6227Z" fill="#33307C"/>
<path fill-rule="evenodd" clip-rule="evenodd" d="M43.125 29.3333L22.5 38.5V42.1667L43.125 33V29.3333Z" fill="#7F85DB"/>
<path fill-rule="evenodd" clip-rule="evenodd" d="M24.375 29.3773H22.5L1.875 20.1667V23.8333L22.5 33L24.375 31.1667V29.3773ZM43.125 20.1667L22.5 11V14.6667L43.125 23.8333V20.1667Z" fill="#33307C"/>
<path fill-rule="evenodd" clip-rule="evenodd" d="M32.8256 28.4112L32.8125 24.75L22.5 29.3333V33L32.8256 28.4112Z" fill="#7F85DB"/>
<path fill-rule="evenodd" clip-rule="evenodd" d="M22.5 5.49999L43.125 14.6667V11L22.5 1.83333V5.49999Z" fill="#33307C"/>
</svg>
