<svg width="156" height="29" viewBox="0 0 156 29" fill="none" xmlns="http://www.w3.org/2000/svg">
<g clip-path="url(#clip0_10_125)">
<path d="M31.8223 8.3438C26.1733 8.3438 21.8019 12.5806 21.8019 18.2969C21.8019 24.0132 26.106 28.25 31.8223 28.25C37.5386 28.25 41.9099 23.946 41.9099 18.2969C41.9099 12.6478 37.6058 8.3438 31.8223 8.3438ZM31.8895 24.0804C28.6615 24.0804 26.375 21.5922 26.375 18.2297C26.375 14.8671 28.6615 12.3788 31.8895 12.3788C35.1176 12.3788 37.4713 14.8671 37.4713 18.2297C37.4713 21.5922 35.0503 24.0804 31.8895 24.0804ZM43.1204 12.6478H45.8777V27.8465H50.3835V8.68004H43.1204V12.6478ZM10.5711 12.4461C12.9248 12.4461 14.8079 13.8583 15.4804 16.0104H20.1879C19.3137 11.4373 15.5476 8.27656 10.5711 8.27656C4.98929 8.3438 0.617996 12.5806 0.617996 18.2969C0.617996 24.0132 4.92204 28.25 10.6383 28.25C15.4804 28.25 19.3137 25.1564 20.1879 20.5162H15.4804C14.8079 22.6682 12.9248 24.1477 10.6383 24.1477C7.41031 24.1477 5.12379 21.6594 5.12379 18.2969C5.12379 14.9343 7.34306 12.4461 10.5711 12.4461ZM127.924 16.4138L124.628 15.9431C123.081 15.7414 121.938 15.2034 121.938 13.9929C121.938 12.6478 123.418 11.9753 125.368 11.9753C127.52 11.9753 128.932 12.9168 129.201 14.3963H133.505C133.034 10.5631 130.075 8.27656 125.502 8.27656C120.795 8.27656 117.634 10.6975 117.634 14.1273C117.634 17.3554 119.652 19.3057 123.821 19.8437L127.117 20.3144C128.731 20.5162 129.605 21.1887 129.605 22.3319C129.605 23.8787 128.058 24.484 125.906 24.484C123.283 24.484 121.804 23.4079 121.535 21.7939H117.163C117.567 25.56 120.526 28.1827 125.839 28.1827C130.681 28.1827 133.976 25.9635 133.976 22.1302C133.976 18.7677 131.622 17.0192 127.924 16.4138ZM48.1642 0.811737C46.5502 0.811737 45.2724 2.02225 45.2724 3.63626C45.2724 5.25028 46.4829 6.46079 48.1642 6.46079C49.7782 6.46079 51.056 5.25028 51.056 3.63626C51.056 2.02225 49.7782 0.811737 48.1642 0.811737ZM113.666 15.2706C113.666 11.1011 111.111 8.3438 105.798 8.3438C100.754 8.3438 97.9295 10.8993 97.3241 14.7999H101.763C101.965 13.2531 103.176 12.0426 105.731 12.0426C108.017 12.0426 109.093 13.0514 109.093 14.2619C109.093 15.8759 107.076 16.2794 104.52 16.5484C101.09 16.9519 96.8536 18.0951 96.8536 22.5337C96.8536 25.9635 99.4089 28.1827 103.511 28.1827C106.74 28.1827 108.69 26.8377 109.699 24.753C109.833 26.6359 111.245 27.8465 113.263 27.8465H115.886V23.8787H113.666V15.2706ZM109.228 20.0454C109.228 22.6009 107.009 24.484 104.251 24.484C102.57 24.484 101.158 23.8114 101.158 22.2647C101.158 20.3816 103.444 19.8437 105.529 19.6419C107.547 19.4401 108.623 19.0367 109.228 18.1624V20.0454ZM85.5557 8.3438C83.0674 8.3438 80.9827 9.35259 79.5033 11.1011V0.609985H75.0643V27.8465H79.4355V25.3582C80.915 27.174 83.0674 28.25 85.5557 28.25C90.9358 28.25 94.9706 24.0132 94.9706 18.2969C94.9706 12.5806 90.8681 8.3438 85.5557 8.3438ZM84.8834 24.0804C81.655 24.0804 79.3685 21.5922 79.3685 18.2297C79.3685 14.8671 81.7221 12.3788 84.9504 12.3788C88.1781 12.3788 90.4646 14.8671 90.4646 18.2297C90.4646 21.6594 88.111 24.0804 84.8834 24.0804ZM64.3716 8.3438C61.4798 8.3438 59.5968 9.55429 58.4535 11.1683V8.68004H54.015V27.8465H58.4535V17.4226C58.4535 14.4636 60.3366 12.4461 63.0938 12.4461C65.6493 12.4461 67.2634 14.2619 67.2634 16.8846V27.8465H71.7019V16.5484C71.7019 11.7063 69.2136 8.3438 64.3716 8.3438ZM155.227 17.6916C155.227 12.1771 151.192 8.3438 145.812 8.3438C140.096 8.3438 135.859 12.6478 135.859 18.2969C135.859 24.2822 140.364 28.25 145.879 28.25C150.519 28.25 154.151 25.4927 155.092 21.5922H150.452C149.78 23.2735 148.166 24.2822 145.946 24.2822C143.055 24.2822 140.903 22.5337 140.432 19.3729H155.227V17.6916ZM140.701 16.2121C141.441 13.5221 143.391 12.2444 145.745 12.2444C148.301 12.2444 150.184 13.6566 150.654 16.2121H140.701Z" fill="#0052FF"/>
</g>
<defs>
<clipPath id="clip0_10_125">
<rect width="154.784" height="27.64" fill="white" transform="translate(0.617996 0.609985)"/>
</clipPath>
</defs>
</svg>
