<svg width="114" height="29" viewBox="0 0 114 29" fill="none" xmlns="http://www.w3.org/2000/svg">
<g clip-path="url(#clip0_10_113)">
<path d="M12.7122 18.0093C13.8175 18.0272 16.2225 18.0661 16.2395 16.5233C16.2563 14.9268 13.8655 14.9759 12.7422 14.9989C12.6266 15.0013 12.5244 15.0034 12.4397 15.0034V18.0062C12.5172 18.0062 12.609 18.0076 12.7122 18.0093Z" fill="#009FE8"/>
<path d="M12.6222 13.6368C13.513 13.6669 15.6104 13.7377 15.6277 12.2972C15.6445 10.8361 13.6526 10.8814 12.713 10.9029C12.6157 10.9051 12.5296 10.9071 12.4582 10.9071V13.6318C12.5066 13.633 12.5616 13.6348 12.6222 13.6368Z" fill="#009FE8"/>
<path fill-rule="evenodd" clip-rule="evenodd" d="M25.2477 9.75784C25.2477 24.5492 13.4035 28.5714 13.4035 28.5714C13.4035 28.5714 1.55933 24.5492 1.55933 9.75784V4.43817C1.55933 3.86357 2.00418 3.38165 2.57878 3.34458C4.72889 3.2519 9.82619 2.80704 13.4035 0.897888C16.9809 2.80704 22.0781 3.2519 24.2282 3.34458C24.8028 3.38165 25.2477 3.86357 25.2477 4.43817V9.75784ZM14.9049 9.36861C16.6657 9.5354 18.0374 10.0915 18.1857 11.7041C18.2969 12.8904 17.7964 13.5947 16.9994 13.9654C18.2969 14.2805 19.0939 15.0775 18.9271 16.8014C18.7046 18.9515 17.1106 19.526 14.8122 19.6372V21.8986H13.4406V19.6743C13.0884 19.6743 12.7177 19.6743 12.347 19.6558V21.8986H10.9939V19.6372C10.6788 19.6187 8.51011 19.6372 8.51011 19.6372L8.5287 17.9876H10.0671V10.7773H8.32479V9.35008C8.32479 9.35008 10.7715 9.33149 11.068 9.33149L11.0495 7.08873H12.4211V9.29444H13.5333V7.10726H14.9049V9.36861Z" fill="#009FE8"/>
<path d="M48.9532 19.5725C48.9532 20.7588 48.7121 21.7411 48.2488 22.5382C47.7854 23.3351 47.1552 23.9839 46.3952 24.4658C45.6167 24.9478 44.7456 25.2999 43.7632 25.5224C42.7808 25.7262 41.7614 25.8374 40.7419 25.8374H32.16V4.28067H40.7419C41.576 4.28067 42.4286 4.37334 43.2998 4.54016C44.171 4.70699 44.968 5.00355 45.6724 5.42987C46.3767 5.85619 46.9513 6.41225 47.4147 7.11661C47.8595 7.82092 48.082 8.72919 48.082 9.82276C48.082 11.0276 47.7669 12.01 47.0996 12.7884C46.4508 13.567 45.5982 14.1416 44.5417 14.4752V14.5308C45.1533 14.642 45.7279 14.8273 46.2655 15.1054C46.803 15.3834 47.2664 15.7356 47.6557 16.1619C48.0449 16.5882 48.36 17.0887 48.601 17.6633C48.8234 18.2194 48.9532 18.8495 48.9532 19.5725ZM43.0403 10.5271C43.0403 9.80424 42.7623 9.26675 42.2062 8.9331C41.6502 8.59944 40.8161 8.43258 39.7225 8.43258H37.1646V12.8811H39.9634C40.9458 12.8811 41.6872 12.6772 42.2248 12.288C42.7808 11.8802 43.0403 11.2871 43.0403 10.5271ZM43.7447 19.072C43.7447 18.1823 43.411 17.5521 42.7437 17.2185C42.0764 16.8663 41.1868 16.6994 40.0561 16.6994H37.1646V21.6299H40.0932C40.5009 21.6299 40.9273 21.5929 41.3536 21.5187C41.7799 21.4445 42.1876 21.3148 42.5398 21.148C42.892 20.9626 43.1886 20.7031 43.411 20.3695C43.6335 20.0358 43.7447 19.6095 43.7447 19.072Z" fill="#222222"/>
<path d="M55.8669 5.83765C55.8669 6.2269 55.7927 6.57908 55.6444 6.91272C55.4962 7.24639 55.2923 7.54292 55.0328 7.78388C54.7733 8.02484 54.4767 8.21022 54.1245 8.35849C53.7723 8.50676 53.4016 8.5624 53.0124 8.5624C52.1968 8.5624 51.5295 8.30285 50.9735 7.74683C50.4174 7.20927 50.158 6.56055 50.158 5.81912C50.158 5.44842 50.2321 5.09624 50.3804 4.7626C50.5287 4.42896 50.7326 4.13239 50.9921 3.89143C51.2515 3.65046 51.5667 3.44658 51.9002 3.29829C52.2524 3.15001 52.6232 3.07587 53.0309 3.07587C53.4202 3.07587 53.7909 3.15001 54.143 3.27976C54.4952 3.42804 54.8103 3.6134 55.0513 3.85436C55.3108 4.09532 55.5147 4.39189 55.663 4.72552C55.7927 5.0777 55.8669 5.44841 55.8669 5.83765ZM50.5101 10.6754H55.5147V25.8374H50.5101V10.6754Z" fill="#222222"/>
<path d="M64.56 14.3825V20.1841C64.56 20.907 64.6897 21.426 64.9678 21.7967C65.2458 22.1489 65.7278 22.3342 66.4506 22.3342C66.6916 22.3342 66.9511 22.3157 67.2291 22.2786C67.5072 22.2416 67.7296 22.186 67.915 22.0933L67.9706 25.7448C67.6184 25.8745 67.192 25.9672 66.6545 26.0599C66.117 26.1525 65.598 26.1896 65.0604 26.1896C64.041 26.1896 63.1884 26.0599 62.5026 25.8004C61.8168 25.5409 61.2607 25.1887 60.8344 24.7068C60.4266 24.2249 60.1115 23.6688 59.9261 23.0015C59.7408 22.3342 59.6481 21.6114 59.6481 20.7958V14.3825H57.2571V10.6754H59.6667V6.69028H64.5785V10.6754H68.1373V14.3825H64.56Z" fill="#222222"/>
<path d="M86.2092 25.8745C84.8005 26.2267 83.2625 26.3935 81.5939 26.3935C79.87 26.3935 78.2761 26.1155 76.8308 25.5779C75.3847 25.0219 74.1246 24.2619 73.0864 23.261C72.0482 22.2601 71.2146 21.0738 70.6395 19.6836C70.0464 18.2935 69.75 16.7365 69.75 15.0312C69.75 13.3075 70.0464 11.7505 70.6582 10.3418C71.2512 8.93308 72.0855 7.74681 73.1417 6.76441C74.1986 5.78203 75.4407 5.02208 76.8487 4.50309C78.2761 3.98409 79.7961 3.70605 81.446 3.70605C83.1513 3.70605 84.7266 3.96555 86.1912 4.48455C87.6552 5.00354 88.8414 5.68935 89.7496 6.57906L86.4691 10.3232C85.9687 9.73006 85.283 9.24814 84.4673 8.87744C83.633 8.50674 82.6875 8.32142 81.6313 8.32142C80.723 8.32142 79.87 8.48822 79.1104 8.82187C78.3321 9.15552 77.6644 9.61891 77.1086 10.2306C76.5342 10.8237 76.0891 11.5466 75.7925 12.3622C75.4773 13.1777 75.3108 14.0859 75.3108 15.0498C75.3108 16.0507 75.4587 16.9589 75.7372 17.7931C76.0151 18.6272 76.4416 19.35 76.9973 19.9432C77.5531 20.5363 78.2395 21.0182 79.0731 21.3519C79.8887 21.6855 80.8343 21.8523 81.8905 21.8523C82.5022 21.8523 83.0773 21.8152 83.633 21.7226C84.1708 21.6299 84.6899 21.4816 85.153 21.2777V17.3482H81.0382V13.1036H89.9349V24.5214C88.8414 25.0775 87.6179 25.5224 86.2092 25.8745Z" fill="#222222"/>
<path d="M108.675 18.2008C108.675 19.4427 108.452 20.5548 108.007 21.5743C107.562 22.5752 106.951 23.4279 106.172 24.1322C105.394 24.8365 104.504 25.3741 103.485 25.7633C102.465 26.1525 101.39 26.3379 100.222 26.3379C99.0915 26.3379 97.998 26.1525 96.9784 25.7633C95.9595 25.3741 95.0513 24.8365 94.2909 24.1322C93.5313 23.4279 92.9196 22.5752 92.4744 21.5743C92.03 20.5733 91.8074 19.4427 91.8074 18.2008C91.8074 16.959 92.03 15.8469 92.4744 14.8459C92.9196 13.845 93.5313 13.0109 94.2909 12.3251C95.0513 11.6393 95.9409 11.1017 96.9784 10.7495C97.998 10.3788 99.0915 10.1935 100.222 10.1935C101.372 10.1935 102.465 10.3788 103.485 10.7495C104.504 11.1203 105.394 11.6393 106.172 12.3251C106.951 13.0109 107.544 13.8635 108.007 14.8459C108.452 15.8469 108.675 16.959 108.675 18.2008ZM103.874 18.2008C103.874 17.7189 103.8 17.237 103.633 16.7736C103.466 16.3102 103.244 15.9024 102.928 15.5317C102.632 15.1796 102.243 14.883 101.798 14.6605C101.353 14.4382 100.834 14.3269 100.241 14.3269C99.6479 14.3269 99.1288 14.4382 98.6843 14.6605C98.2392 14.883 97.8687 15.1796 97.5722 15.5317C97.2756 15.8839 97.0531 16.2917 96.9044 16.7736C96.7565 17.237 96.6819 17.7189 96.6819 18.2008C96.6819 18.6827 96.7565 19.1647 96.9044 19.628C97.0531 20.0914 97.2756 20.5178 97.5901 20.8885C97.8867 21.2592 98.2765 21.5743 98.721 21.7967C99.1661 22.0192 99.6852 22.1304 100.278 22.1304C100.871 22.1304 101.39 22.0192 101.835 21.7967C102.28 21.5743 102.651 21.2777 102.966 20.8885C103.262 20.5178 103.504 20.0914 103.651 19.628C103.8 19.1647 103.874 18.6827 103.874 18.2008Z" fill="#222222"/>
<path d="M111.214 22.8718C112.16 22.8718 112.957 23.6132 112.957 24.5956C112.957 25.5965 112.141 26.3379 111.214 26.3379C110.268 26.3379 109.453 25.5965 109.453 24.5956C109.453 23.5947 110.251 22.8718 111.214 22.8718ZM111.214 23.1499C110.417 23.1499 109.787 23.7801 109.787 24.5956C109.787 25.4482 110.417 26.0414 111.214 26.0414C112.011 26.0414 112.623 25.4297 112.623 24.5956C112.623 23.7615 111.992 23.1499 111.214 23.1499ZM110.844 25.5965H110.528V23.5947H111.288C111.77 23.5947 111.992 23.7801 111.992 24.1693C111.992 24.5215 111.77 24.6883 111.473 24.7254L112.048 25.5965H111.715L111.177 24.7254H110.825V25.5965H110.844ZM110.844 24.4844H111.214C111.585 24.4844 111.715 24.3732 111.715 24.1508C111.715 23.9654 111.622 23.8542 111.269 23.8542H110.862V24.4844H110.844Z" fill="#222222"/>
</g>
<defs>
<clipPath id="clip0_10_113">
<rect width="112.669" height="28.34" fill="white" transform="translate(0.910645 0.26001)"/>
</clipPath>
</defs>
</svg>
