<svg width="171" height="43" viewBox="0 0 171 43" fill="none" xmlns="http://www.w3.org/2000/svg">
<g clip-path="url(#clip0_10_129)">
<path d="M14.3695 14.7033C16.3466 14.5539 19.2721 14.0157 22.1158 12.1342C24.964 14.0185 27.8947 14.5555 29.8759 14.704C29.7842 18.3242 29.6044 20.9164 29.3174 22.8253C28.9778 25.0834 28.515 26.181 28.0405 26.8404C27.5769 27.4847 26.9606 27.9205 25.7411 28.5945C25.5483 28.7011 25.3427 28.8124 25.1251 28.9302L25.1239 28.9308C24.2852 29.3851 23.2683 29.9359 22.1159 30.6814C20.9653 29.937 19.9503 29.3868 19.1131 28.9329C18.8942 28.8143 18.6874 28.7022 18.4935 28.595C17.2759 27.9213 16.6615 27.4858 16.1994 26.8423C15.7261 26.183 15.2646 25.0852 14.9262 22.8263C14.6401 20.917 14.4611 18.3241 14.3695 14.7033Z" fill="#009FE8"/>
<path fill-rule="evenodd" clip-rule="evenodd" d="M14.7536 0H28.7653C36.6754 0 43.0877 6.41231 43.0877 14.3223V28.334C43.0877 36.244 36.6754 42.6563 28.7653 42.6563H14.7536C6.84366 42.6563 0.431351 36.244 0.431351 28.334V14.3223C0.431351 6.41231 6.84366 0 14.7536 0ZM23.4591 7.91638C22.6814 7.26677 21.5502 7.26677 20.7724 7.91638C17.5718 10.5896 13.9203 10.5717 12.4324 10.5644C12.3607 10.564 12.2941 10.5637 12.2328 10.5637C11.6715 10.5637 11.1336 10.7888 10.7397 11.1887C10.3459 11.5886 10.1288 12.1297 10.1373 12.691C10.2092 17.4572 10.3995 20.9003 10.7811 23.4474C11.1623 25.9917 11.7613 27.847 12.7947 29.2865C13.8393 30.7417 15.1778 31.5506 16.4646 32.2625C16.6936 32.3891 16.9246 32.5146 17.1592 32.642C18.2731 33.2469 19.4656 33.8945 20.8942 34.9194C21.6244 35.4431 22.6072 35.4431 23.3373 34.9194C24.7673 33.8936 25.9613 33.2457 27.0771 32.6402C27.3104 32.5137 27.5404 32.3888 27.7684 32.2629C29.056 31.5513 30.3961 30.7429 31.4426 29.2884C32.4783 27.849 33.0794 25.9936 33.4621 23.4485C33.8452 20.9008 34.0363 17.4574 34.1081 12.691C34.1166 12.1297 33.8995 11.5886 33.5057 11.1887C33.1118 10.7888 32.574 10.5637 32.0127 10.5637C31.9507 10.5637 31.8834 10.564 31.8111 10.5644C30.3109 10.5716 26.6596 10.5894 23.4591 7.91638Z" fill="#009FE8"/>
<path d="M57.3962 17.1729H52.7655V14.4438H65.3756V17.1729H60.7448V28.9151H57.3962V17.1729ZM68.5481 19.2608C68.9337 18.7232 69.4508 18.3165 70.0982 18.0408C70.7598 17.7655 71.5174 17.6274 72.3719 17.6274V20.6046C72.0145 20.5769 71.7732 20.5631 71.6488 20.5631C70.7252 20.5631 70.0021 20.8249 69.478 21.3487C68.9543 21.8586 68.6924 22.6304 68.6924 23.664V28.9151H65.4676V17.7928H68.5481V19.2608ZM84.3353 17.7928V28.9151H81.275V27.5918C80.8478 28.074 80.3383 28.4463 79.7452 28.7082C79.1527 28.9562 78.5119 29.0804 77.8227 29.0804C76.362 29.0804 75.2048 28.6599 74.3503 27.8193C73.4959 26.9787 73.0687 25.7314 73.0687 24.0774V17.7928H76.2929V23.602C76.2929 25.3935 77.0443 26.2896 78.5465 26.2896C79.3179 26.2896 79.9387 26.0415 80.4074 25.545C80.8754 25.0352 81.1098 24.2843 81.1098 23.2918V17.7928H84.3353ZM89.8242 29.0804C88.9006 29.0804 87.9978 28.97 87.1164 28.7497C86.2336 28.5151 85.5313 28.2259 85.0073 27.8814L86.0822 25.5661C86.5786 25.8829 87.1779 26.1447 87.881 26.3512C88.584 26.5443 89.2725 26.6408 89.9479 26.6408C91.3125 26.6408 91.9948 26.3035 91.9948 25.6277C91.9948 25.3109 91.8082 25.0834 91.4369 24.9458C91.0643 24.8081 90.4926 24.6906 89.7205 24.594C88.8114 24.4564 88.06 24.2978 87.4676 24.119C86.8744 23.9398 86.358 23.6225 85.917 23.168C85.4898 22.713 85.2762 22.0655 85.2762 21.2245C85.2762 20.5219 85.476 19.9016 85.8755 19.364C86.2889 18.8126 86.8813 18.3854 87.6535 18.0824C88.4388 17.7794 89.3624 17.6274 90.4235 17.6274C91.2095 17.6274 91.9879 17.7172 92.7594 17.8965C93.5454 18.0618 94.1931 18.296 94.7033 18.599L93.6277 20.8938C92.6495 20.3427 91.5814 20.067 90.4235 20.067C89.7343 20.067 89.2179 20.1636 88.873 20.3562C88.5287 20.5492 88.3566 20.7973 88.3566 21.1007C88.3566 21.4452 88.5425 21.6861 88.9144 21.8242C89.2863 21.9618 89.8795 22.0928 90.6924 22.217C91.6022 22.3685 92.346 22.5339 92.9246 22.7131C93.5039 22.8784 94.0065 23.1886 94.4337 23.6435C94.8609 24.098 95.0745 24.7322 95.0745 25.545C95.0745 26.2341 94.8685 26.8477 94.4551 27.3849C94.041 27.9225 93.4348 28.343 92.6357 28.646C91.8503 28.9356 90.913 29.0804 89.8242 29.0804ZM102.998 28.3775C102.681 28.6116 102.288 28.7909 101.819 28.9151C101.365 29.025 100.882 29.0804 100.373 29.0804C99.0494 29.0804 98.0229 28.7426 97.2922 28.0673C96.5753 27.392 96.2172 26.3995 96.2172 25.0905V20.5219H94.5014V18.0408H96.2172V15.333H99.4421V18.0408H102.212V20.5219H99.4421V25.049C99.4421 25.5178 99.5596 25.8829 99.7933 26.1448C100.041 26.3928 100.386 26.5171 100.827 26.5171C101.337 26.5171 101.771 26.3789 102.13 26.1032L102.998 28.3775ZM130.281 14.4438L125.547 28.9151H121.951L118.766 19.116L115.479 28.9151H111.903L107.149 14.4438H110.622L113.888 24.6151L117.299 14.4438H120.399L123.707 24.6977L127.077 14.4438H130.281ZM134.341 17.6274C136.064 17.6274 137.387 18.0408 138.311 18.868C139.234 19.6809 139.695 20.9143 139.695 22.5683V28.9151H136.677V27.5297C136.071 28.5634 134.941 29.0804 133.287 29.0804C132.433 29.0804 131.689 28.9356 131.054 28.646C130.434 28.3569 129.958 27.957 129.628 27.4471C129.297 26.9371 129.132 26.3584 129.132 25.7104C129.132 24.6772 129.518 23.8638 130.29 23.2713C131.075 22.6787 132.281 22.3824 133.907 22.3824H136.471C136.471 21.6794 136.257 21.1418 135.83 20.77C135.402 20.3839 134.761 20.1908 133.907 20.1908C133.315 20.1908 132.729 20.2873 132.15 20.4804C131.585 20.6596 131.103 20.9076 130.703 21.2245L129.545 18.9712C130.151 18.544 130.875 18.2133 131.716 17.9791C132.57 17.7445 133.446 17.6274 134.341 17.6274ZM134.093 26.9094C134.645 26.9094 135.134 26.7856 135.561 26.5376C135.989 26.2757 136.291 25.8968 136.471 25.4007V24.2633H134.258C132.936 24.2633 132.274 24.6977 132.274 25.5661C132.274 25.9795 132.433 26.3101 132.749 26.5581C133.08 26.7923 133.528 26.9094 134.093 26.9094ZM141.374 13.5758H144.599V28.9151H141.374V13.5758ZM146.352 13.5758H149.577V28.9151H146.352V13.5758ZM162.224 23.3951C162.224 23.4366 162.204 23.7262 162.161 24.2633H153.748C153.9 24.9525 154.258 25.4968 154.823 25.8968C155.388 26.2963 156.091 26.4961 156.932 26.4961C157.51 26.4961 158.021 26.4134 158.462 26.248C158.916 26.0688 159.337 25.7935 159.722 25.4212L161.438 27.2817C160.391 28.4807 158.861 29.0804 156.849 29.0804C155.595 29.0804 154.485 28.8391 153.52 28.3569C152.556 27.8604 151.811 27.1784 151.288 26.3101C150.764 25.4418 150.502 24.4564 150.502 23.3539C150.502 22.2653 150.757 21.2866 151.267 20.4183C151.791 19.5366 152.501 18.8541 153.397 18.3719C154.306 17.8755 155.319 17.6274 156.436 17.6274C157.524 17.6274 158.51 17.862 159.391 18.3304C160.274 18.7992 160.963 19.4744 161.459 20.3562C161.969 21.2245 162.224 22.2376 162.224 23.3951ZM156.456 20.067C155.726 20.067 155.112 20.2735 154.617 20.6873C154.12 21.1007 153.817 21.6655 153.706 22.3824H159.185C159.075 21.6794 158.771 21.1212 158.275 20.7079C157.779 20.2806 157.172 20.067 156.456 20.067ZM170.303 28.3775C169.987 28.6116 169.594 28.7909 169.126 28.9151C168.671 29.025 168.189 29.0804 167.679 29.0804C166.356 29.0804 165.329 28.7426 164.598 28.0673C163.881 27.392 163.523 26.3995 163.523 25.0905V20.5219H161.808V18.0408H163.523V15.333H166.748V18.0408H169.519V20.5219H166.748V25.049C166.748 25.5178 166.865 25.8829 167.099 26.1448C167.348 26.3928 167.692 26.5171 168.134 26.5171C168.643 26.5171 169.077 26.3789 169.436 26.1032L170.303 28.3775Z" fill="#222222"/>
</g>
<defs>
<clipPath id="clip0_10_129">
<rect width="170.057" height="42.86" fill="white" transform="translate(0.431351)"/>
</clipPath>
</defs>
</svg>
