<svg width="127" height="35" viewBox="0 0 127 35" fill="none" xmlns="http://www.w3.org/2000/svg">
<g clip-path="url(#clip0_10_135)">
<path d="M24.1472 17.2372L33.9711 27.0611H30.4949C29.9093 27.0611 29.3236 26.8154 28.908 26.3998L19.7832 17.2372L28.9458 8.05576C29.3614 7.64011 29.9282 7.39453 30.5327 7.41341H33.9711L24.1472 17.2372ZM6.14321 8.05576C5.72759 7.64011 5.16083 7.39453 4.55629 7.41341H1.09906L10.9228 17.2372L1.09906 27.0611H4.57518C5.16083 27.0611 5.74648 26.8154 6.1621 26.3998L15.3058 17.2184L6.14321 8.05576ZM17.5351 19.4854L8.35359 28.648C7.93794 29.0636 7.71125 29.6303 7.71125 30.2349V33.6921L17.5351 23.8683L27.3589 33.6921V30.216C27.3589 29.6303 27.1321 29.0447 26.7166 28.6291L17.5351 19.4854ZM17.5351 14.9891L26.7166 5.8265C27.1321 5.41088 27.3589 4.84411 27.3589 4.23958V0.782349L17.5351 10.6061L7.71125 0.782349V4.23958C7.71125 4.82523 7.93794 5.41088 8.35359 5.8265L17.5351 14.9891Z" fill="url(#paint0_linear_10_135)"/>
<path fill-rule="evenodd" clip-rule="evenodd" d="M107.444 5.55254V25.748C107.426 26.0692 107.558 26.3904 107.785 26.6359C108.011 26.8815 108.333 27.0138 108.654 27.0138H109.012C109.353 27.0138 109.674 26.8815 109.901 26.6359C110.127 26.3904 110.26 26.0692 110.26 25.748V5.55254H112.602V26.277C112.602 27.8451 111.355 29.1108 109.787 29.1486H107.993C107.218 29.1486 106.481 28.8652 105.933 28.3173C105.386 27.7694 105.083 27.0516 105.083 26.277V5.55254H107.444ZM124.107 5.32583C125.675 5.36362 126.941 6.83719 126.941 8.42412V10.2944C126.941 10.5589 126.771 10.7856 126.507 10.8612L124.561 11.409V8.72638C124.561 8.04628 123.994 7.4795 123.314 7.4795C122.634 7.4795 122.067 8.02741 122.067 8.72638V10.9556C122.067 12.3348 123.087 14.0917 123.087 14.0917L125.883 19.4759C127.017 21.6107 126.922 23.1787 126.922 23.1787V26.1637C126.922 26.9382 126.62 27.6939 126.072 28.2607C125.524 28.8274 124.769 29.1297 123.975 29.1486H122.502C120.914 29.0541 119.668 27.7506 119.668 26.1637V22.8198C119.668 22.5553 119.838 22.3286 120.102 22.253L122.048 21.7052V25.7858C122.048 26.4659 122.615 27.0138 123.314 27.0138C123.994 27.0138 124.561 26.4471 124.542 25.748V23.0843C124.542 21.7241 123.521 19.9104 123.521 19.9104L120.764 14.5262C119.63 12.3915 119.724 10.8234 119.724 10.8234V8.42412C119.724 6.79941 121.028 5.32583 122.672 5.32583H124.107ZM79.881 5.32583C81.4684 5.40141 82.7149 6.72384 82.7149 8.31073V26.2392C82.6963 27.8073 81.449 29.0919 79.881 29.1674H78.0862C76.4809 29.1486 75.177 27.845 75.1583 26.2392V8.29186C75.1583 7.51732 75.4604 6.76162 76.0087 6.19487C76.5562 5.62811 77.3119 5.32583 78.1056 5.30695L79.881 5.32583ZM52.9602 5.55254L52.3934 7.51732C52.3178 7.78177 52.0911 7.95184 51.8267 7.95184H48.0672V15.4708H51.9589L51.3922 17.4356C51.3166 17.6812 51.0899 17.8701 50.8254 17.8701H48.0672V26.5415H52.9602L52.4123 28.4874C52.3368 28.7519 52.1101 28.9219 51.8456 28.9219H45.7245V5.55254H52.9602ZM94.7302 5.55254C96.3549 5.57144 97.6394 6.87498 97.6394 8.48081V25.9747C97.6394 27.5806 96.3362 28.903 94.7302 28.903H90.1962V5.55254H94.7302ZM63.8608 13.0715L66.0146 5.55254H68.4138L65.0699 17.2466L68.4327 28.9408H66.0334L63.8608 21.4029L61.7071 28.9219H59.3079L62.6518 17.2466L59.289 5.55254H61.6883L63.8608 13.0715ZM79.088 27.0516C79.4275 27.0516 79.749 26.9005 79.9757 26.6548C80.2025 26.4092 80.3345 26.0881 80.3159 25.748V8.72638C80.3345 8.3863 80.2025 8.06516 79.9757 7.81958C79.749 7.57401 79.4275 7.44175 79.088 7.42281H78.7285C78.0295 7.46063 77.482 8.02741 77.482 8.72638V25.748C77.482 26.4471 78.0295 27.0138 78.7285 27.0516H79.088ZM94.0692 26.5604C94.7302 26.5604 95.3158 26.2204 95.3158 25.3135V9.1609C95.3158 8.29186 94.7302 7.95184 94.0692 7.95184H92.5385V26.5604H94.0692Z" fill="#222222"/>
</g>
<defs>
<linearGradient id="paint0_linear_10_135" x1="1.0881" y1="17.2337" x2="21.8728" y2="17.2337" gradientUnits="userSpaceOnUse">
<stop stop-color="#00BFFF"/>
<stop offset="1" stop-color="#6619FF"/>
</linearGradient>
<clipPath id="clip0_10_135">
<rect width="126.52" height="33.8769" fill="white" transform="translate(0.490051 0.491516)"/>
</clipPath>
</defs>
</svg>
