<svg width="175" height="35" viewBox="0 0 175 35" fill="none" xmlns="http://www.w3.org/2000/svg">
<g clip-path="url(#clip0_10_100)">
<path fill-rule="evenodd" clip-rule="evenodd" d="M1.2999 11.9723L0.134186 6.24968L1.93602 0.950958L13.2753 5.19L22.601 5.18994L33.8356 1.02899L33.9402 0.950958L33.952 0.985857L34.0463 0.950958L33.9614 1.01334L35.7418 6.24968L34.576 11.9723L35.4238 12.5022L34.2581 13.35L35.1059 13.9858L33.9402 15.0456L34.682 15.4695L33.0922 17.377L35.5295 24.9012H29.065L26.8389 24.9555L28.9592 25.0072L25.3407 30.3832L25.3562 30.518L21.0113 32.5313V31.2596L20.5873 28.1865L24.6337 25.0738L24.6172 24.928L24.6146 25.0072L20.5307 28.1487L20.5873 28.1865L20.9052 31.2598L20.5873 30.9418H15.2886L15.1108 31.1195L15.0939 31.2427L15.2889 31.0477H20.5876L20.9055 31.3656V32.6373L25.3562 30.518L23.8728 31.7895L20.6936 33.909H15.2889L12.2157 31.7895L10.6255 30.5179L14.971 32.6373V32.5868L10.6255 30.5179L11.2519 25.0937L11.2418 25.0739L10.6255 30.5179L2.6775 32.7434L0.452038 25.0072L6.91648 24.9012L6.98537 25.0055L9.08966 24.9542L6.91648 24.9012H0.452038L2.86475 17.4532L1.2999 15.5755L2.04172 15.0456L0.876005 13.9858L1.7238 13.35L0.558084 12.5022L1.2999 11.9723ZM7.9766 18.5428L15.7064 18.8562L15.712 18.9624L8.03126 18.651L7.9766 18.5428ZM19.8452 21.5101V27.7455L20.0577 18.9672L20.7995 22.9932L20.8999 22.9639L20.9231 22.9568L24.7205 21.828L24.6181 24.9013L24.7236 24.9039L24.8261 21.8279L22.0712 20.5563L22.052 20.5964L21.965 20.5562L20.8759 22.8335L20.1636 18.9667L27.8984 18.6532L28.0053 18.5427L25.784 15.2636L27.8997 18.6488L20.0577 18.9672L20.0566 18.9735L19.8452 21.5101ZM11.2582 25.0071L11.2615 25.0071L11.259 25.0315L11.2582 25.0071ZM11.2589 24.9226L11.2615 25.0071L11.258 25.0004L11.2562 24.9465L11.2589 24.9226ZM8.08938 18.7653L8.08544 18.7577L11.1558 21.828L11.2582 24.9013L11.2547 24.9014L11.1558 21.934L8.08938 18.7653ZM11.1558 21.828L13.9111 20.5562L15.0768 22.9937L11.1558 21.828ZM20.6969 10.7608L26.9688 6.15181L20.7399 10.7988L20.6969 10.7608ZM15.3946 28.1866L10.6278 30.517L15.3718 28.3512L15.3946 28.1866Z" fill="#F5841F"/>
<path d="M25.3562 30.518L29.065 24.9012L35.5294 25.0072L33.304 32.7433L25.3562 30.518Z" fill="#F5841F"/>
<path d="M54.5808 9.32292H52.3554C52.3554 9.32292 52.2494 9.32292 52.2494 9.42892L50.3419 15.6814C50.3419 15.7874 50.2359 15.7874 50.1299 15.6814L48.2224 9.42892C48.2224 9.42892 48.2224 9.32292 48.1164 9.32292H44.8312C44.8312 9.32292 44.7253 9.32292 44.7253 9.42892V25.3251C44.7253 25.3251 44.7253 25.431 44.8312 25.431H47.1627C47.1627 25.431 47.2687 25.431 47.2687 25.3251V13.138C47.2687 13.0321 47.3746 13.0321 47.4806 13.138L49.3882 19.3905L49.4941 19.8145C49.4941 19.8145 49.4941 19.9204 49.6001 19.9204H51.4016C51.4016 19.9204 51.5076 19.9204 51.5076 19.8145L51.6136 19.3905L53.5211 13.138C53.5211 13.0321 53.7331 13.0321 53.7331 13.138V25.2191C53.7331 25.2191 53.7331 25.3251 53.8391 25.3251H56.1705C56.1705 25.3251 56.2765 25.3251 56.2765 25.2191V9.32292C56.2765 9.32292 56.2765 9.21698 56.1705 9.21698H54.5808V9.32292Z" fill="#222222"/>
<path d="M64.2423 22.8876V18.0128C64.2423 18.0128 64.2422 17.9069 64.3482 17.9069H70.4945C70.4945 17.9069 70.6009 17.9069 70.6009 17.8009V15.7874C70.6009 15.7874 70.6009 15.6814 70.4945 15.6814H64.3482C64.3482 15.6814 64.2423 15.6814 64.2423 15.5755V11.3365C64.2423 11.3365 64.2422 11.2305 64.3482 11.2305H71.3424C71.3424 11.2305 71.4488 11.2305 71.4488 11.1245V9.32292C71.4488 9.32292 71.4488 9.21698 71.3424 9.21698H61.9108C61.9108 9.21698 61.8048 9.21698 61.8048 9.32292V25.0071C61.8048 25.0071 61.8048 25.1131 61.9108 25.1131H71.5545C71.5545 25.1131 71.6602 25.1132 71.6602 25.0071V22.8876C71.6602 22.8876 71.6602 22.7817 71.5545 22.7817L64.2423 22.8876Z" fill="#222222"/>
<path d="M88.1043 9.21698H77.295C77.295 9.21698 77.1886 9.21698 77.1886 9.32292V11.3365C77.1886 11.3365 77.1886 11.4424 77.295 11.4424H81.5338V25.2191C81.5338 25.2191 81.5338 25.3251 81.6396 25.3251H83.9711C83.9711 25.3251 84.0769 25.3251 84.0769 25.2191V11.4424H88.3164C88.3164 11.4424 88.4221 11.4424 88.4221 11.3365L88.1043 9.21698Z" fill="#222222"/>
<path d="M103.7 25.3251H105.82C105.926 25.3251 105.926 25.2191 105.926 25.2191L101.58 9.32292C101.58 9.32292 101.58 9.21698 101.475 9.21698H98.4015C98.4015 9.21698 98.2951 9.21698 98.2951 9.32292L93.9505 25.2191C93.9505 25.3251 93.9505 25.3251 94.0562 25.3251H96.1756C96.1756 25.3251 96.282 25.3251 96.282 25.2191L97.5536 20.5562C97.5536 20.5562 97.5536 20.4503 97.6593 20.4503H102.322C102.322 20.4503 102.428 20.4503 102.428 20.5562L103.7 25.3251C103.594 25.3251 103.594 25.3251 103.7 25.3251ZM98.1893 18.3308L99.8851 12.1842C99.8851 12.0783 99.9909 12.0783 100.097 12.1842L101.792 18.3308C101.792 18.4367 101.792 18.4367 101.687 18.4367H98.2951C98.1893 18.4367 98.1893 18.3308 98.1893 18.3308Z" fill="#222222"/>
<path d="M119.19 9.32292C119.084 9.32292 119.084 9.32292 119.19 9.32292L117.176 15.5755C117.176 15.6814 117.071 15.6814 116.964 15.5755L115.057 9.32292C115.057 9.32292 115.057 9.21698 114.951 9.21698H111.56C111.56 9.21698 111.454 9.21698 111.454 9.32292V25.2191C111.454 25.2191 111.454 25.3251 111.56 25.3251H113.891C113.891 25.3251 113.997 25.3251 113.997 25.2191V13.138C113.997 13.0321 114.103 13.0321 114.209 13.138L116.117 19.3905L116.223 19.8144C116.223 19.8144 116.223 19.9204 116.328 19.9204H118.13C118.13 19.9204 118.236 19.9204 118.236 19.8144L118.342 19.3905L120.249 13.138C120.249 13.0321 120.462 13.0321 120.462 13.138V25.2191C120.462 25.2191 120.462 25.3251 120.567 25.3251H122.899C122.899 25.3251 123.005 25.3251 123.005 25.2191V9.32292C123.005 9.32292 123.005 9.21698 122.899 9.21698H119.19V9.32292Z" fill="#222222"/>
<path d="M138.283 25.3251H140.402C140.509 25.3251 140.509 25.2191 140.509 25.2191L136.163 9.32292C136.163 9.32292 136.163 9.21698 136.058 9.21698H132.985C132.985 9.21698 132.878 9.21698 132.878 9.32292L128.534 25.2191C128.534 25.3251 128.534 25.3251 128.639 25.3251H130.759C130.759 25.3251 130.865 25.3251 130.865 25.2191L132.137 20.5562C132.137 20.5562 132.137 20.4503 132.242 20.4503H136.906C136.906 20.4503 137.011 20.4503 137.011 20.5562L138.283 25.3251ZM132.878 18.3308L134.574 12.1842C134.574 12.0783 134.68 12.0783 134.786 12.1842L136.481 18.3308C136.481 18.4367 136.481 18.4367 136.376 18.4367H132.985C132.878 18.4367 132.878 18.3308 132.878 18.3308Z" fill="#222222"/>
<path d="M154.303 17.589C153.349 16.9531 152.29 16.5292 151.335 15.9993C150.7 15.6814 150.064 15.3635 149.428 14.8336C148.474 14.0918 148.687 12.5022 149.64 11.8664C151.017 10.9126 153.349 11.4424 153.667 13.35C153.667 13.35 153.667 13.456 153.773 13.456H155.893C155.998 13.456 155.998 13.456 155.998 13.35C155.893 12.0783 155.363 10.9126 154.409 10.2767C153.561 9.64087 152.501 9.21698 151.442 9.21698C145.825 9.21698 145.295 15.1515 148.368 16.9531C148.687 17.1651 151.653 18.6487 152.713 19.2846C153.773 19.9204 154.091 21.0861 153.667 22.0399C153.243 22.8877 152.183 23.5235 151.124 23.4175C149.958 23.3116 149.004 22.6757 148.687 21.7219C148.58 21.51 148.58 21.1921 148.58 21.0861C148.58 21.0861 148.58 20.9802 148.474 20.9802H146.143C146.143 20.9802 146.037 20.9802 146.037 21.0861C146.037 22.7817 146.461 23.6295 147.626 24.4773C148.687 25.3251 149.852 25.643 151.017 25.643C154.197 25.643 155.786 23.8414 156.104 22.0399C156.422 20.2383 155.893 18.6487 154.303 17.589Z" fill="#222222"/>
<path d="M174.332 25.1131L166.383 16.9531V16.8471L173.59 9.42892C173.696 9.32292 173.59 9.32292 173.484 9.32292H170.517C170.517 9.32292 170.517 9.32292 170.411 9.32292L164.37 15.5755C164.264 15.6814 164.264 15.5755 164.264 15.4695V9.32292C164.264 9.32292 164.264 9.21698 164.158 9.21698H161.827C161.827 9.21698 161.721 9.21698 161.721 9.32292V25.2191C161.721 25.2191 161.721 25.3251 161.827 25.3251H164.158C164.158 25.3251 164.264 25.3251 164.264 25.2191V18.2248C164.264 18.1188 164.37 18.1188 164.37 18.1188L171.259 25.2191C171.259 25.2191 171.259 25.2191 171.364 25.2191H174.332C174.332 25.2191 174.437 25.1131 174.332 25.1131Z" fill="#222222"/>
</g>
<defs>
<clipPath id="clip0_10_100">
<rect width="174.834" height="33.17" fill="white" transform="translate(0.0282288 0.845001)"/>
</clipPath>
</defs>
</svg>
