<?xml version="1.0" encoding="utf-8"?>
<!-- Generator: Adobe Illustrator 25.0.1, SVG Export Plug-In . SVG Version: 6.00 Build 0)  -->
<svg version="1.0" id="Layer_1" xmlns="http://www.w3.org/2000/svg" xmlns:xlink="http://www.w3.org/1999/xlink" x="0px" y="0px"
	 viewBox="0 0 925.1 653.7" style="enable-background:new 0 0 925.1 653.7;" xml:space="preserve">
<style type="text/css">
	.st0{fill-rule:evenodd;clip-rule:evenodd;fill:#1899D6;}
	.st1{fill-rule:evenodd;clip-rule:evenodd;fill:#2F4049;}
	.st2{fill:none;}
</style>
<path class="st0" d="M826,319.9l-79.3-47.3l-21,110.6L826,319.9z M625,411.7c-47,0-74.8-31.8-73.5-73.1
	c1.6-52.9,48.2-96.7,103.8-96.7c23.8,0,42.9,6.2,55.6,12.6l-7.4,39.1c-15.9-8.6-29.6-13.9-51.6-13.9c-34.6,0-57.5,25.9-58.4,53.8
	c-0.7,22.2,12.7,40.6,38.5,40.6c5.8,0,11.5-0.7,17.2-2l10.1-53.5h39.4l-15.3,80.7C666.7,407.2,644.8,411.7,625,411.7z"/>
<path class="st1" d="M143.9,374c-27.9,0-44.4-18.7-43.7-42.9c1-31,28.6-56.8,61.6-56.8c11.4-0.1,22.7,2.4,32.9,7.4l-4.4,23
	c-9.4-5.1-17.5-8.1-30.6-8.1c-20.6,0-34.1,15.2-34.7,31.6c-0.4,13.1,7.5,23.9,22.9,23.9c3.4,0,6.8-0.4,10.2-1.1l6-31.4h23.4l-9,47.4
	C168.7,371.4,155.7,374,143.9,374L143.9,374z M441.4,381.7c5.2,0.2,10-2.4,12.5-7l2-3.2l-16.3-67.6h24.2l5.7,34.1
	c0.5,3.4,0.7,6.8,0.7,10.2h0.3l4.2-9.8l15.5-34.5h26.1L473,380.2c-8.6,15.1-20.6,20.7-30.3,20.7c-6.4-0.1-12.7-2-18.2-5.4l10.1-16
	C436.6,380.9,439,381.7,441.4,381.7L441.4,381.7z M405.9,328h0.9l0.3-2.5c0-4.4-3.2-6.1-8.6-6.1c-8.6,0-19.6,6.1-19.6,6.1l-4.9-16.9
	c0,0,14-7.4,29-7.4c11.5,0,26.9,4.4,26.9,21.3c0,2.2-0.3,4.4-0.6,6.5l-7.9,40.7h-20.8l0.8-4c0.3-1.4,0.7-2.8,1.2-4.2h-0.3
	c0,0-7.4,9.8-20,9.8c-10.1,0-19.9-6-19.9-17.3C362.3,333.8,388.5,328,405.9,328L405.9,328z M390.7,354.1c5.9,0,12.4-6.4,13.4-11.8
	l0.3-1.4h-2.1c-4.9,0-17.1,1-17.1,9C385.2,352.3,386.9,354.2,390.7,354.1L390.7,354.1z M297.1,277h36.6c5-0.1,10,0.8,14.6,2.9
	c9,4.2,13.9,12.9,13.9,23.9c0.2,15-8.4,28.8-22,35.2c-4.6,2.1-9.7,3.2-14.8,3.2h-17.8l-5.8,29.1h-23.5L297.1,277z M323,322.4
	c2.8,0.1,5.5-0.6,7.9-2c4.4-2.9,7.2-8.3,7.2-14.5c0-5.5-3.2-9.1-9.7-9.1h-11.8l-5.1,25.6L323,322.4z M237.5,301.2
	c20.6,0,35.6,11.8,35.6,30c0,23.6-21.5,40-42.8,40c-20.7,0-35.6-11.7-35.6-30C194.8,317.7,216.1,301.2,237.5,301.2z M230.7,352.6
	c10.7-0.3,19.3-9.1,19.1-19.9c0-7.9-5.3-12.7-12.5-12.7c-9.1,0-19.2,8-19.2,20.3C218.1,348,223.4,352.6,230.7,352.6L230.7,352.6z"/>
<rect id="SVGID" x="99" y="240.7" class="st2" width="727" height="172.3"/>
</svg>
